<svg width="114" height="114" viewBox="0 0 114 114" fill="none" xmlns="http://www.w3.org/2000/svg">
<path d="M25.75 39.5H47.625C48.9792 39.5 50.1 39.0563 50.9875 38.1688C51.8708 37.2854 52.3125 36.1667 52.3125 34.8125C52.3125 33.4583 51.8708 32.3375 50.9875 31.45C50.1 30.5667 48.9792 30.125 47.625 30.125H25.75C24.3958 30.125 23.2771 30.5667 22.3937 31.45C21.5062 32.3375 21.0625 33.4583 21.0625 34.8125C21.0625 36.1667 21.5062 37.2854 22.3937 38.1688C23.2771 39.0563 24.3958 39.5 25.75 39.5ZM67.9375 89.8125H89.8125C91.1667 89.8125 92.2875 89.3708 93.175 88.4875C94.0583 87.6 94.5 86.4792 94.5 85.125C94.5 83.7708 94.0583 82.6521 93.175 81.7688C92.2875 80.8812 91.1667 80.4375 89.8125 80.4375H67.9375C66.5833 80.4375 65.4646 80.8812 64.5813 81.7688C63.6938 82.6521 63.25 83.7708 63.25 85.125C63.25 86.4792 63.6938 87.6 64.5813 88.4875C65.4646 89.3708 66.5833 89.8125 67.9375 89.8125ZM67.9375 74.1875H89.8125C91.1667 74.1875 92.2875 73.7438 93.175 72.8562C94.0583 71.9729 94.5 70.8542 94.5 69.5C94.5 68.1458 94.0583 67.025 93.175 66.1375C92.2875 65.2542 91.1667 64.8125 89.8125 64.8125H67.9375C66.5833 64.8125 65.4646 65.2542 64.5813 66.1375C63.6938 67.025 63.25 68.1458 63.25 69.5C63.25 70.8542 63.6938 71.9729 64.5813 72.8562C65.4646 73.7438 66.5833 74.1875 67.9375 74.1875ZM36.6875 94.5C38.0417 94.5 39.1625 94.0583 40.05 93.175C40.9333 92.2875 41.375 91.1667 41.375 89.8125V82H49.1875C50.5417 82 51.6625 81.5563 52.55 80.6687C53.4333 79.7854 53.875 78.6667 53.875 77.3125C53.875 75.9583 53.4333 74.8375 52.55 73.95C51.6625 73.0667 50.5417 72.625 49.1875 72.625H41.375V64.8125C41.375 63.4583 40.9333 62.3375 40.05 61.45C39.1625 60.5667 38.0417 60.125 36.6875 60.125C35.3333 60.125 34.2146 60.5667 33.3313 61.45C32.4438 62.3375 32 63.4583 32 64.8125V72.625H24.1875C22.8333 72.625 21.7146 73.0667 20.8312 73.95C19.9437 74.8375 19.5 75.9583 19.5 77.3125C19.5 78.6667 19.9437 79.7854 20.8312 80.6687C21.7146 81.5563 22.8333 82 24.1875 82H32V89.8125C32 91.1667 32.4438 92.2875 33.3313 93.175C34.2146 94.0583 35.3333 94.5 36.6875 94.5ZM66.8438 47.1562C67.7812 48.0938 68.875 48.5625 70.125 48.5625C71.375 48.5625 72.4688 48.0938 73.4062 47.1562L78.875 41.6875L84.5 47.3125C85.3333 48.1458 86.375 48.5625 87.625 48.5625C88.875 48.5625 89.9687 48.0938 90.9062 47.1562C91.7396 46.3229 92.1562 45.2542 92.1562 43.95C92.1562 42.65 91.7396 41.5312 90.9062 40.5938L85.4375 34.8125L91.0625 29.1875C91.8958 28.3542 92.3125 27.3125 92.3125 26.0625C92.3125 24.8125 91.8437 23.7188 90.9062 22.7812C89.9687 21.8438 88.875 21.375 87.625 21.375C86.375 21.375 85.2812 21.8438 84.3438 22.7812L78.875 28.25L73.25 22.625C72.4167 21.7917 71.375 21.375 70.125 21.375C68.875 21.375 67.7812 21.8438 66.8438 22.7812C65.9062 23.7188 65.4375 24.8125 65.4375 26.0625C65.4375 27.3125 65.9062 28.4062 66.8438 29.3437L72.3125 34.8125L66.6875 40.5938C65.8542 41.5312 65.4375 42.625 65.4375 43.875C65.4375 45.125 65.9062 46.2188 66.8438 47.1562ZM13.25 113.25C9.8125 113.25 6.86875 112.027 4.41875 109.581C1.97292 107.131 0.75 104.188 0.75 100.75V13.25C0.75 9.8125 1.97292 6.86875 4.41875 4.41875C6.86875 1.97292 9.8125 0.75 13.25 0.75H100.75C104.188 0.75 107.131 1.97292 109.581 4.41875C112.027 6.86875 113.25 9.8125 113.25 13.25V100.75C113.25 104.188 112.027 107.131 109.581 109.581C107.131 112.027 104.188 113.25 100.75 113.25H13.25Z" fill="#737373"/>
</svg>
