<svg width="23" height="29" viewBox="0 0 23 29" fill="none" xmlns="http://www.w3.org/2000/svg">
<path d="M9.40909 21.75H17.7727V23.8214H9.40909V21.75ZM5.22727 21.75H7.31818V23.8214H5.22727V21.75ZM9.40909 16.5714H17.7727V18.6429H9.40909V16.5714ZM5.22727 16.5714H7.31818V18.6429H5.22727V16.5714ZM9.40909 11.3929H17.7727V13.4643H9.40909V11.3929ZM5.22727 11.3929H7.31818V13.4643H5.22727V11.3929Z" fill="black"/>
<path d="M20.9091 3.10714H17.7727V2.07143C17.7727 1.52205 17.5524 0.995175 17.1603 0.606707C16.7682 0.218239 16.2364 0 15.6818 0H7.31818C6.76364 0 6.23181 0.218239 5.83969 0.606707C5.44756 0.995175 5.22727 1.52205 5.22727 2.07143V3.10714H2.09091C1.53637 3.10714 1.00453 3.32538 0.612413 3.71385C0.220291 4.10232 0 4.62919 0 5.17857V26.9286C0 27.4779 0.220291 28.0048 0.612413 28.3933C1.00453 28.7818 1.53637 29 2.09091 29H20.9091C21.4636 29 21.9955 28.7818 22.3876 28.3933C22.7797 28.0048 23 27.4779 23 26.9286V5.17857C23 4.62919 22.7797 4.10232 22.3876 3.71385C21.9955 3.32538 21.4636 3.10714 20.9091 3.10714ZM7.31818 2.07143H15.6818V6.21429H7.31818V2.07143ZM20.9091 26.9286H2.09091V5.17857H5.22727V8.28571H17.7727V5.17857H20.9091V26.9286Z" fill="black"/>
</svg>
