<svg width="14" height="14" viewBox="0 0 14 14" fill="none" xmlns="http://www.w3.org/2000/svg">
<path d="M6.06671 10.0667L10.7667 5.36667L9.83337 4.43334L6.06671 8.2L4.16671 6.3L3.23337 7.23334L6.06671 10.0667ZM7.00004 13.6667C6.07782 13.6667 5.21115 13.4916 4.40004 13.1413C3.58893 12.7916 2.88337 12.3167 2.28337 11.7167C1.68337 11.1167 1.20849 10.4111 0.858707 9.6C0.508485 8.78889 0.333374 7.92222 0.333374 7C0.333374 6.07778 0.508485 5.21111 0.858707 4.4C1.20849 3.58889 1.68337 2.88334 2.28337 2.28334C2.88337 1.68334 3.58893 1.20822 4.40004 0.858002C5.21115 0.508225 6.07782 0.333336 7.00004 0.333336C7.92226 0.333336 8.78893 0.508225 9.60004 0.858002C10.4112 1.20822 11.1167 1.68334 11.7167 2.28334C12.3167 2.88334 12.7916 3.58889 13.1414 4.4C13.4916 5.21111 13.6667 6.07778 13.6667 7C13.6667 7.92222 13.4916 8.78889 13.1414 9.6C12.7916 10.4111 12.3167 11.1167 11.7167 11.7167C11.1167 12.3167 10.4112 12.7916 9.60004 13.1413C8.78893 13.4916 7.92226 13.6667 7.00004 13.6667Z" fill="#737373"/>
</svg>
